<svg xmlns="http://www.w3.org/2000/svg" viewBox="0 0 466.59 446.15"><defs><style>.cls-1,.cls-10{fill:#92e3a9;}.cls-2,.cls-8{fill:#fff;}.cls-2{opacity:0.7;}.cls-3,.cls-5,.cls-7{fill:#263238;}.cls-11,.cls-14,.cls-4,.cls-6{fill:none;}.cls-10,.cls-11,.cls-12,.cls-13,.cls-14,.cls-4,.cls-5,.cls-6,.cls-7,.cls-8,.cls-9{stroke:#263238;}.cls-14,.cls-4,.cls-5{stroke-linecap:round;stroke-linejoin:round;}.cls-10,.cls-11,.cls-12,.cls-13,.cls-6,.cls-7,.cls-8,.cls-9{stroke-miterlimit:10;}.cls-9{fill:#ededed;}.cls-11,.cls-14{stroke-width:2px;}.cls-12{fill:#6e6e6e;}.cls-13{fill:#c4c4c4;}</style></defs><g id="Background_Simple" data-name="Background Simple"><path class="cls-1" d="M412,117.61s-87.44-84.83-189.9-75S2.18,252,25,321.22s98.54,124.64,186.63,144.22S387.35,454.88,430.27,393,529.46,255.31,412,117.61Z" transform="translate(-15.88 -25.22)"/><path class="cls-2" d="M412,117.61s-87.44-84.83-189.9-75S2.18,252,25,321.22s98.54,124.64,186.63,144.22S387.35,454.88,430.27,393,529.46,255.31,412,117.61Z" transform="translate(-15.88 -25.22)"/></g><g id="Plant"><path class="cls-3" d="M443,306.06h0a.06.06,0,0,0,0-.09.07.07,0,0,0-.09,0,97.59,97.59,0,0,0-5.09,15.94,148.35,148.35,0,0,0-2.8,16.52l-.4,4.17c-.06.7-.14,1.4-.19,2.09l-.11,2.1c-.06,1.4-.15,2.79-.19,4.19l0,4.2.05,2.09c0,.7.08,1.4.13,2.1.1,1.39.19,2.79.32,4.18.26,2.78.68,5.55,1.11,8.3a.08.08,0,0,0,.08.06.07.07,0,0,0,.07-.07h0c0-1.4-.07-2.79-.1-4.18s-.16-2.78-.14-4.17,0-2.78,0-4.17l0-2.08,0-2.08,0-4.15.11-4.16,0-2.08c0-.69.07-1.38.11-2.07l.26-4.16a145.42,145.42,0,0,1,2.35-16.47A96,96,0,0,1,443,306.06Z" transform="translate(-15.88 -25.22)"/><path class="cls-3" d="M443.6,327.81a.09.09,0,0,0-.05-.1.07.07,0,0,0-.09.05,96.89,96.89,0,0,0-4.71,21.41c-.37,3.64-.78,7.28-.83,10.94a93.47,93.47,0,0,0,.39,11s0,.07.07.07a.08.08,0,0,0,.08-.07c.42-3.64.68-7.27.93-10.9s.29-7.28.53-10.91a96,96,0,0,1,1.3-10.81A97.41,97.41,0,0,1,443.6,327.81Z" transform="translate(-15.88 -25.22)"/><path class="cls-3" d="M455.65,335.45a.08.08,0,0,0-.1,0,36.74,36.74,0,0,0-8.06,7,31.19,31.19,0,0,0-3.15,4.38l-.65,1.22-.51,1.27a12.26,12.26,0,0,0-.44,1.29c-.13.43-.28.86-.39,1.3a51.27,51.27,0,0,0-1.67,10.63,60.83,60.83,0,0,0,.4,10.71.07.07,0,0,0,.07.06s.07,0,.08-.06l.92-10.6a93.45,93.45,0,0,1,1.34-10.46c.09-.42.22-.84.32-1.26a10.61,10.61,0,0,1,.38-1.25l.43-1.23.55-1.15a32.27,32.27,0,0,1,2.89-4.39,36,36,0,0,1,7.57-7.36h0A.08.08,0,0,0,455.65,335.45Z" transform="translate(-15.88 -25.22)"/><path class="cls-3" d="M449.82,349.07a11.64,11.64,0,0,0-3.67,4.41,25.9,25.9,0,0,0-2,5.4,13.69,13.69,0,0,0-.36,1.4l-.33,1.41a22.81,22.81,0,0,0-.36,2.86c0,1,0,1.92,0,2.88a23.07,23.07,0,0,0,.37,2.86s0,.06.06.06a.08.08,0,0,0,.09-.06,27.84,27.84,0,0,0,.51-2.82c.15-.93.29-1.86.4-2.78s.26-1.85.33-2.78.2-1.86.4-2.77a25.39,25.39,0,0,1,1.57-5.34,11.86,11.86,0,0,1,3.08-4.6h0a.07.07,0,0,0,0-.09A.07.07,0,0,0,449.82,349.07Z" transform="translate(-15.88 -25.22)"/><path class="cls-3" d="M432.91,359.69c-.4-4.7-1.17-9.36-1.91-14s-1.54-9.3-2.39-13.93-1.81-9.25-2.81-13.86a.06.06,0,0,0-.08-.05.06.06,0,0,0-.06.08c.8,4.64,1.53,9.29,2.22,13.95s1.37,9.31,2,14,1,9.35,1.61,14l1.72,14s0,.07.07.07a.08.08,0,0,0,.08-.07c.05-1.18.05-2.36.08-3.54s0-2.37-.07-3.55C433.29,364.4,433.09,362.05,432.91,359.69Z" transform="translate(-15.88 -25.22)"/><path class="cls-3" d="M430.09,359.62c-.25-1.86-.59-3.71-.95-5.56l-.66-2.75c-.22-.91-.42-1.83-.69-2.74a78.21,78.21,0,0,0-3.6-10.7l-.56-1.29-.63-1.27c-.4-.85-.88-1.66-1.34-2.49a20.92,20.92,0,0,0-3.39-4.5.07.07,0,0,0-.1,0,.08.08,0,0,0,0,.1h0a21,21,0,0,1,3.11,4.61c.41.83.84,1.66,1.19,2.52l.55,1.28.49,1.31a76.29,76.29,0,0,1,3.14,10.7c.43,1.81.71,3.66,1.06,5.48l.44,2.76c.16.92.36,1.83.49,2.75.29,1.84.63,3.68.95,5.52s.62,3.69,1,5.53a.07.07,0,0,0,.07.06.08.08,0,0,0,.08-.07c0-1.88,0-3.76-.13-5.64S430.28,361.5,430.09,359.62Z" transform="translate(-15.88 -25.22)"/><path class="cls-3" d="M426.2,359.86c-.88-2.46-1.89-4.88-3-7.25a65.16,65.16,0,0,0-3.75-6.87.08.08,0,0,0-.1,0,.07.07,0,0,0,0,.1,64.36,64.36,0,0,1,3.2,7.09c1,2.41,1.82,4.85,2.54,7.33s1.26,5,1.92,7.49,1.25,5,2,7.53a.08.08,0,0,0,.07.05.08.08,0,0,0,.08-.07,38.06,38.06,0,0,0-.74-7.83A49.43,49.43,0,0,0,426.2,359.86Z" transform="translate(-15.88 -25.22)"/><path class="cls-3" d="M426,368.09a16.55,16.55,0,0,0-2.07-4.35,18.1,18.1,0,0,0-3-3.74,13.43,13.43,0,0,0-1.92-1.45,7.93,7.93,0,0,0-2.18-1,.07.07,0,0,0-.08,0,.07.07,0,0,0,0,.1h0a10.88,10.88,0,0,1,3.61,2.8,17.25,17.25,0,0,1,2.52,3.81c.71,1.35,1.08,2.85,1.7,4.24.28.71.55,1.43.86,2.14a18,18,0,0,0,.95,2.18h0a.08.08,0,0,0,.07,0,.07.07,0,0,0,.07-.07,16.14,16.14,0,0,0-.09-2.41A23.82,23.82,0,0,0,426,368.09Z" transform="translate(-15.88 -25.22)"/><path class="cls-1" d="M426.32,324.62a13.39,13.39,0,0,1-9.49-10.08c-1.78-8.31,4-4.75-1.18-17.8s-4-16-2.18-19.77,2.77-2.57,4.35,2.37,7.32,12.66,9.49,27.09S426.32,324.62,426.32,324.62Z" transform="translate(-15.88 -25.22)"/><path class="cls-1" d="M441.55,310.58s-5.14-1.78-5.34-11.47,3.76-7.71,4.35-19.77,1.38-20.56,3.56-20.76S452,264.51,454,278s-2.58,22.34-6.53,26.29S441.55,310.58,441.55,310.58Z" transform="translate(-15.88 -25.22)"/><path class="cls-1" d="M423.56,336.29s-1.19-7.12-3.56-10.48-7.52-6.33-10.88-12.86-7.11-9.68-6.92-.39,4.35,14,9.49,17.2S423.56,336.29,423.56,336.29Z" transform="translate(-15.88 -25.22)"/><path class="cls-1" d="M421.38,348.54a71,71,0,0,0-11.66-15.81c-6.92-6.73-12.46-10.09-10.48-6.73s4.35,3.17,7.71,9.1,2.37,10.28,7.12,13.64S421.38,348.54,421.38,348.54Z" transform="translate(-15.88 -25.22)"/><path class="cls-1" d="M420.79,360.21c-.2-.59-.4-4.94-7.12-8.5s-13.05-2.18-12.26-.4,4.94,4.75,9.1,6.53A41.81,41.81,0,0,0,420.79,360.21Z" transform="translate(-15.88 -25.22)"/><path class="cls-1" d="M441.15,336.68s-3-3.76-1.38-11.66,5.14-5.94,9.09-10.09,3.17-4.74,7.12-9.09,7.52-6.73,9.1-4.95-.79,7.32-3.17,10.48-6.13,4.75-7.9,8.7-1,10.28-5.54,13.25S441.15,336.68,441.15,336.68Z" transform="translate(-15.88 -25.22)"/><path class="cls-1" d="M451,338.86s7.12-8.11,12.26-14,7.12-10.48,7.31-6.53,1.78,7.12-2.37,12.26S451,338.86,451,338.86Z" transform="translate(-15.88 -25.22)"/><path class="cls-1" d="M447.28,351.91s-.19-3.17,11.08-10.48,16-8.7,14.82-5.74-6.13,5.93-11.46,11.27S447.28,351.91,447.28,351.91Z" transform="translate(-15.88 -25.22)"/><path class="cls-4" d="M426.79,323.78s-2.64-14.19-5.41-24.27-4.55-16.21-4.55-16.21" transform="translate(-15.88 -25.22)"/><path class="cls-4" d="M441.09,310.73s4.81-15.37,6.39-24.67-.2-16.21-1-20.36" transform="translate(-15.88 -25.22)"/><path class="cls-4" d="M422.93,336a74.17,74.17,0,0,0-7.28-10.38c-4.35-5.14-7.71-7.91-9.69-12.85" transform="translate(-15.88 -25.22)"/><path class="cls-4" d="M441.15,336.68s1.59-9.49,5.34-14.43,11.27-12.66,14.24-17.6" transform="translate(-15.88 -25.22)"/><path class="cls-4" d="M420.32,360s-6.65-4.33-11.39-6.7" transform="translate(-15.88 -25.22)"/><path class="cls-5" d="M458.42,399.85c-.45-12-13.78-20-13.78-20H424.21s-13.33,8-13.77,20,15.11,56,15.11,56h17.76S458.86,411.84,458.42,399.85Z" transform="translate(-15.88 -25.22)"/><polygon class="cls-5" points="431.39 342.84 405.32 342.84 408.33 354.63 428.39 354.63 431.39 342.84"/></g><g id="Pictures"><rect class="cls-6" x="284.79" y="0.5" width="107.45" height="121.28"/><rect class="cls-6" x="289.72" y="6.07" width="97.58" height="110.13"/><rect class="cls-6" x="315.45" y="35.1" width="46.13" height="52.07"/><rect class="cls-6" x="401.6" y="76" width="59.66" height="67.33"/><rect class="cls-6" x="404.34" y="79.1" width="54.18" height="61.15"/><rect class="cls-6" x="418.62" y="95.22" width="25.61" height="28.91"/></g><g id="Clock"><circle class="cls-6" cx="119.1" cy="80.74" r="40.09" transform="translate(-38.09 82.65) rotate(-45)"/><circle class="cls-6" cx="119.1" cy="80.74" r="37.07" transform="translate(3.91 159.65) rotate(-80.49)"/><path class="cls-6" d="M122.28,80.74a3.18,3.18,0,1,1-3.18-3.18A3.18,3.18,0,0,1,122.28,80.74Z" transform="translate(-15.88 -25.22)"/><line class="cls-6" x1="100.04" y1="55.53" x2="89.21" y2="55.53"/><line class="cls-6" x1="103.22" y1="58.71" x2="103.22" y2="83.01"/></g><g id="Device"><rect class="cls-7" x="99.93" y="247.64" width="33.97" height="2.98"/><rect class="cls-7" x="99.93" y="226.06" width="17.4" height="24.56"/><rect class="cls-7" x="50.74" y="141.55" width="110.44" height="86.15"/><rect class="cls-8" x="54.07" y="141.55" width="110.44" height="86.15"/><rect class="cls-9" x="57.92" y="144.56" width="102.74" height="80.14"/><rect class="cls-8" x="141.61" y="246.87" width="85.21" height="3.75"/></g><g id="Table"><path class="cls-8" d="M75,282.14l-.13,6.39L71.57,452.32a3.58,3.58,0,0,1-7.16,0L61.09,288.53,61,282.14Z" transform="translate(-15.88 -25.22)"/><polygon class="cls-7" points="59.13 256.93 59 263.32 45.21 263.32 45.08 256.93 59.13 256.93"/><path class="cls-8" d="M384.83,455.84h0a3.58,3.58,0,0,1-3.58-3.52l-3.44-170.17h14.05l-3.44,170.17A3.59,3.59,0,0,1,384.83,455.84Z" transform="translate(-15.88 -25.22)"/><polygon class="cls-7" points="362.06 263.32 375.85 263.32 375.98 256.93 361.93 256.93 362.06 263.32"/><rect class="cls-8" x="36.78" y="250.55" width="346.22" height="8.3"/></g><g id="Chair"><rect class="cls-7" x="232.78" y="326.83" width="17.45" height="66.91"/><polygon class="cls-7" points="168.82 289.68 176.02 315.68 179.36 310.79 170.87 289.42 168.82 289.68"/><path class="cls-10" d="M197.3,299.57H186.46a6.81,6.81,0,0,0-4.06,1.31C180.88,302,172.85,311.75,171,315a2,2,0,0,0,1.74,3h10.73a6.39,6.39,0,0,0,2.08-.34h0a6.51,6.51,0,0,0,3.32-2.47l9.51-12.87S199.36,300.94,197.3,299.57Z" transform="translate(-15.88 -25.22)"/><polygon class="cls-7" points="310.12 289.68 302.92 315.68 299.57 310.79 308.06 289.42 310.12 289.68"/><path class="cls-10" d="M313.39,299.57h10.84a6.79,6.79,0,0,1,4.06,1.31c1.52,1.11,9.55,10.87,11.45,14.09a2,2,0,0,1-1.74,3H327.27a6.43,6.43,0,0,1-2.08-.34h0a6.55,6.55,0,0,1-3.32-2.47l-9.51-12.87S311.33,300.94,313.39,299.57Z" transform="translate(-15.88 -25.22)"/><path class="cls-10" d="M208.47,223.16H271a24.5,24.5,0,0,1,24.5,24.5V309.4a0,0,0,0,1,0,0H184a0,0,0,0,1,0,0V247.66A24.5,24.5,0,0,1,208.47,223.16Z"/><path class="cls-10" d="M314.62,347.49H196.74a5.54,5.54,0,0,1-5-8l8.23-6.84a6,6,0,0,1,5.42-3.36H306a6,6,0,0,1,5.42,3.36l8.19,6.84A5.54,5.54,0,0,1,314.62,347.49Z" transform="translate(-15.88 -25.22)"/><path class="cls-7" d="M200.12,347.11s22,6.45,55.75,7.59,58.75-7.21,58.75-7.21Z" transform="translate(-15.88 -25.22)"/><line class="cls-11" x1="235.81" y1="328.34" x2="195.61" y2="334.03"/><path class="cls-3" d="M214.29,365.07h-5.36a1,1,0,0,1-1-1.12l.63-5.11a1,1,0,0,1,1-.88h4.1a1,1,0,0,1,1,.88l.63,5.11A1,1,0,0,1,214.29,365.07Z" transform="translate(-15.88 -25.22)"/><path class="cls-3" d="M214.29,365.85h-5.36a1.77,1.77,0,0,1-1.33-.6,1.8,1.8,0,0,1-.44-1.4l.64-5.11a1.77,1.77,0,0,1,1.76-1.56h4.1a1.78,1.78,0,0,1,1.76,1.56l.63,5.11a1.75,1.75,0,0,1-.43,1.4A1.78,1.78,0,0,1,214.29,365.85Zm-4.73-7.12a.23.23,0,0,0-.23.2l-.64,5.11a.25.25,0,0,0,.06.18.23.23,0,0,0,.18.08h5.36a.25.25,0,0,0,.18-.08.26.26,0,0,0,.05-.18l-.63-5.11a.23.23,0,0,0-.23-.2Z" transform="translate(-15.88 -25.22)"/><path class="cls-3" d="M193.18,447.61H187v-7.39a24.38,24.38,0,0,1,24.36-24.35h37.29V422H211.37a18.2,18.2,0,0,0-18.19,18.18Z" transform="translate(-15.88 -25.22)"/><path class="cls-3" d="M319.89,447.61h6.17v-7.39a24.38,24.38,0,0,0-24.36-24.35H264.41V422H301.7a18.2,18.2,0,0,1,18.19,18.18Z" transform="translate(-15.88 -25.22)"/><path class="cls-12" d="M201.67,449.41a6.43,6.43,0,1,0-6.43,6.43A6.43,6.43,0,0,0,201.67,449.41Z" transform="translate(-15.88 -25.22)"/><path class="cls-12" d="M324.58,449.41a6.43,6.43,0,1,0-6.43,6.43A6.43,6.43,0,0,0,324.58,449.41Z" transform="translate(-15.88 -25.22)"/><rect class="cls-3" x="237.41" y="391.53" width="7.76" height="31.03"/><rect class="cls-12" x="237.41" y="418.18" width="8.1" height="12.14" rx="2.62"/></g><g id="Character"><path class="cls-13" d="M145.68,245.73a23.59,23.59,0,0,1-4.9-5.43c-1.45-2.65-2.78-2.65-4.63-3.44s-8.74-4.11-10.72-6.49-4.9-1.85-4.9-.4,4,6.49,5.69,7.55,3.84,2.78,1.85,3.71a45.26,45.26,0,0,1-6.48,2.38c-1.59.4-6.62-.8-8.08-.8s-.4,2.25,3.44,7.15,9.93,7.55,14.17,6.75a81.27,81.27,0,0,1,9-1L147,259.1Z" transform="translate(-15.88 -25.22)"/><path class="cls-13" d="M122.12,249.57s.13-5.56.13-7.55,1.32-7.94.79-8.87-2.78,0-2.78,0,1.19-4.37.8-4.63-2.12.39-2.92.79-2.38,0-2.91.66-5.16,8.61-5.16,10.73,2.78,6.48,5.56,8.47S121.72,253.67,122.12,249.57Z" transform="translate(-15.88 -25.22)"/><path class="cls-13" d="M120.26,233.15s-2.91,7.55-3,12.84" transform="translate(-15.88 -25.22)"/><path class="cls-13" d="M118.14,229.31s-5.82,9.8-5.42,13.37,1.72,4.37,1.72,4.37" transform="translate(-15.88 -25.22)"/><path class="cls-13" d="M140.91,248.9s-3.83-2.64-6.61-2.38-10.07,3.84-10.07,3.84-7.67-5.43-8.73-5.82-2.92-1.06-2.92.13,2.92,2.38,4.64,4.63,5.56,5.16,6.88,5.43a34,34,0,0,1,4.24,1.46" transform="translate(-15.88 -25.22)"/><polygon class="cls-8" points="133.68 220.73 128.36 219.29 128.93 234.97 132.96 236.12 133.68 220.73"/><path class="cls-10" d="M245.12,209.4l-15.42,6.17v91.8a197,197,0,0,1,26.22-2.32,141,141,0,0,1,23.66,2.32l2.57-95.92-9.77-2.57Z" transform="translate(-15.88 -25.22)"/><path class="cls-13" d="M272.38,208.88s-12.86,16.2-14.4,16.46-14.4-14.4-14.4-14.4l0-2.24-.23-16,2.79.73,24.73,6.47Z" transform="translate(-15.88 -25.22)"/><polygon class="cls-7" points="240.72 181.68 227.67 183.48 227.44 167.46 230.23 168.19 240.72 181.68"/><path class="cls-13" d="M247.1,150.14s-11.12,4.92-11.38,11.39,1.55,19.15,1.55,19.15-3.11-2.85-3.11,1,.26,7,1.56,8.28,4.91,1.81,4.91,1.81a79.6,79.6,0,0,1,3.63,8.28c.77,2.59,7.24,7.77,12.16,9.58s10.09-2.33,11.65-3.37,5.66-5.18,6.18-7.51a75.37,75.37,0,0,1,2.88-8A9,9,0,0,0,282,184.3a4.2,4.2,0,0,0-3.62-5.43s-.26-17.08-2.59-21.48-9.06-6.73-15-8.54S247.1,150.14,247.1,150.14Z" transform="translate(-15.88 -25.22)"/><path class="cls-4" d="M251.76,193.62s6.21,5.69,14.24-.52" transform="translate(-15.88 -25.22)"/><path class="cls-4" d="M254.09,185.86a5.71,5.71,0,0,0,4.66,2.07,4.83,4.83,0,0,0,3.88-2.85" transform="translate(-15.88 -25.22)"/><path class="cls-4" d="M244,177.32s3.88-2.85,6.73-.78" transform="translate(-15.88 -25.22)"/><path class="cls-4" d="M264.7,175.76a8.84,8.84,0,0,1,7.51.78" transform="translate(-15.88 -25.22)"/><path class="cls-7" d="M260.82,148.85c-5.95-1.81-13.72,1.29-13.72,1.29s-11.12,4.92-11.38,11.39,1.55,19.15,1.55,19.15a4,4,0,0,0,2.33-4.14c-.26-3.11-1.81-9.83,0-15s5.18-8.54,8.28-8.54,7.77.78,11.39,1,4.66-1.29,8.54-1,5.69,6.73,5.43,9.57a12,12,0,0,0,1,6.73,53.35,53.35,0,0,1,2.59,9.32c0,1,1.55.26,1.55.26s-.26-17.08-2.59-21.48S266.77,150.66,260.82,148.85Z" transform="translate(-15.88 -25.22)"/><path class="cls-14" d="M255.39,169.29s-16.31,1-18.12,2.85,2.33,9.58,4.92,10.35,9.83.78,11.64-.77,2.73-9.91,2.73-9.91h1.63l0-2.52Z" transform="translate(-15.88 -25.22)"/><path class="cls-14" d="M259.61,169.29s16.31,1,18.12,2.85-2.33,9.58-4.92,10.35-9.83.78-11.64-.77-2.73-9.91-2.73-9.91h-1.63l0-2.52Z" transform="translate(-15.88 -25.22)"/><path class="cls-14" d="M242,168.9s4.43-3.67,11.38-1.55" transform="translate(-15.88 -25.22)"/><path class="cls-14" d="M270.77,168.9s-4.43-3.67-11.37-1.55" transform="translate(-15.88 -25.22)"/><path class="cls-7" d="M243.58,209.4A475.26,475.26,0,0,1,242,267.77c-2.83,30.34-8.23,42.94-8.23,42.94s-10.8,2.83-11.57,2.83-11.83-.52-11.83-.52l-.26-53s-23.4,8-30.08,8.75-33.56-5.53-33.56-5.53l2.19-20.7s29.57,4.88,31.11,4.88,23.66-10.8,23.66-10.8,4.37-18.25,8.74-20.83S243.58,209.4,243.58,209.4Z" transform="translate(-15.88 -25.22)"/><path class="cls-13" d="M361,245.73a23.41,23.41,0,0,0,4.89-5.43c1.46-2.65,2.79-2.65,4.64-3.44s8.74-4.11,10.72-6.49,4.9-1.85,4.9-.4-4,6.49-5.69,7.55-3.84,2.78-1.86,3.71a45.35,45.35,0,0,0,6.49,2.38c1.59.4,6.62-.8,8.08-.8s.39,2.25-3.45,7.15-9.92,7.55-14.16,6.75a81.53,81.53,0,0,0-9-1l-6.89,3.44Z" transform="translate(-15.88 -25.22)"/><path class="cls-13" d="M384.51,249.57s-.13-5.56-.13-7.55-1.32-7.94-.8-8.87,2.78,0,2.78,0-1.19-4.37-.79-4.63,2.12.39,2.91.79,2.39,0,2.92.66,5.16,8.61,5.16,10.73-2.78,6.48-5.56,8.47S384.91,253.67,384.51,249.57Z" transform="translate(-15.88 -25.22)"/><path class="cls-13" d="M386.36,233.15s2.92,7.55,3.05,12.84" transform="translate(-15.88 -25.22)"/><path class="cls-13" d="M388.48,229.31s5.83,9.8,5.43,13.37-1.72,4.37-1.72,4.37" transform="translate(-15.88 -25.22)"/><path class="cls-13" d="M365.71,248.9s3.84-2.64,6.62-2.38,10.06,3.84,10.06,3.84,7.68-5.43,8.74-5.82,2.91-1.06,2.91.13-2.91,2.38-4.63,4.63-5.56,5.16-6.88,5.43a34,34,0,0,0-4.24,1.46" transform="translate(-15.88 -25.22)"/><polygon class="cls-8" points="341.19 220.73 346.51 219.29 345.94 234.97 341.91 236.12 341.19 220.73"/><path class="cls-7" d="M272.42,209.4A475.26,475.26,0,0,0,274,267.77c2.83,30.34,8.23,42.94,8.23,42.94s10.8,2.83,11.57,2.83,11.83-.52,11.83-.52l.25-53s23.4,8,30.09,8.75,23-6.79,23-6.79l.12-17.13s-21.31,2.57-22.85,2.57-23.66-10.8-23.66-10.8-4.37-18.25-8.74-20.83S272.42,209.4,272.42,209.4Z" transform="translate(-15.88 -25.22)"/><polyline class="cls-6" points="228.86 210.41 241.59 202.69 255.09 213.88"/><path class="cls-12" d="M197.75,300.07s11.69,24.82,31.09,32.24,30.52,9.12,47.35,5.41,38.5-19.11,42.49-45.06c0,0-18.54,15.4-36.51,20.82s-47.06-.57-59.89-6.56S195.18,291.8,197.75,300.07Z" transform="translate(-15.88 -25.22)"/><path class="cls-12" d="M288.32,305.82s-18.12-3.47-33.17-3.85-34.33,11.57-34.33,11.57,32.4,19.67,38.19,21.21,23.91-13.88,28.16-18.51S291.41,305.82,288.32,305.82Z" transform="translate(-15.88 -25.22)"/><path class="cls-12" d="M269,325.22s-13.89-4.24-29.32-23.53-34.32-44.35-40.88-51.3S178,250.78,178.78,267s20.06,39.73,40.12,52.46,44.74,20.05,50.91,21.6,22,9.25,29.7,8.1,12.73-17.36,6.94-20.45-25.45.39-32-1.54S269,325.22,269,325.22Z" transform="translate(-15.88 -25.22)"/><path class="cls-7" d="M306.45,328.69c-5.78-3.08-25.45.39-32-1.54l-.81-.24A13.33,13.33,0,0,0,270.2,336a13.67,13.67,0,0,0,1.23,5.49c7,2.23,21,8.69,28.08,7.63C307.22,348,312.24,331.78,306.45,328.69Z" transform="translate(-15.88 -25.22)"/><path class="cls-12" d="M240.66,326.36s13.89-4.24,29.32-23.52,34.32-44.36,40.88-51.3,20.83.38,20.06,16.58-20.06,39.73-40.12,52.46-44.74,20.06-50.91,21.6-22,9.26-29.7,8.1-12.73-17.36-6.94-20.44,25.45.38,32-1.55S240.66,326.36,240.66,326.36Z" transform="translate(-15.88 -25.22)"/><path class="cls-7" d="M203.25,329.84c5.78-3.09,25.45.38,32-1.55l.81-.24a13.33,13.33,0,0,1,3.43,9.11,13.67,13.67,0,0,1-1.23,5.49c-7,2.23-21,8.69-28.08,7.63C202.48,349.12,197.46,332.92,203.25,329.84Z" transform="translate(-15.88 -25.22)"/><line class="cls-6" x1="230.02" y1="250.52" x2="247.76" y2="262.09"/><line class="cls-6" x1="239.66" y1="260.94" x2="249.3" y2="265.95"/></g><g id="Floor"><line class="cls-8" y1="430.62" x2="466.59" y2="430.62"/></g></svg>