<svg id="Line" height="512" viewBox="0 0 36 36" width="512" xmlns="http://www.w3.org/2000/svg"><path d="m34.904 20.355c-3.782-5.791-3.38-11.727-5.203-14.518s-7.256-7.603-20.093.782-9.572 17.5-7.566 20.569c9.388 14.372 39.561 3.423 32.862-6.833z" fill="#efefef"/><path d="m.167 4.75c-.827 0-1.5-.673-1.5-1.5s.673-1.5 1.5-1.5 1.5.673 1.5 1.5-.673 1.5-1.5 1.5zm0-2c-.276 0-.5.224-.5.5s.224.5.5.5.5-.224.5-.5-.225-.5-.5-.5z" fill="#a4afc1"/><path d="m23.5 21.5h-15c-1.1 0-2-.9-2-2v-11c0-1.1.9-2 2-2h15c1.1 0 2 .9 2 2v2 9c0 1.105-.895 2-2 2z" fill="#f3f3f1"/><path d="m26.709 15.75h-5.838c-1.31 0-2.372-1.062-2.372-2.372v-.257c0-1.31 1.062-2.372 2.372-2.372h5.838c.437 0 .791.354.791.791v3.419c0 .437-.354.791-.791.791z" fill="#2fdf84"/><path d="m29.008 25.868-3.14 3.14c-.32.32-.839.323-1.162.006l-4.708-4.613c-.159-.156-.249-.369-.248-.592l.009-3.638c.001-.227.185-.412.412-.412l3.638-.009c.223-.001.436.089.592.248l4.613 4.708c.317.324.314.842-.006 1.162z" fill="#2fdf84"/><path d="m26.29 28.59-.42.42c-.32.32-.84.32-1.16 0l-4.71-4.61c-.16-.15-.25-.37-.25-.59l.01-3.64c0-.23.18-.41.41-.41l3.64-.01c.01 0 .03 0 .04.01h-1.68c-.23 0-.41.18-.41.41l-.01 3.64c0 .22.09.44.25.59z" fill="#00b871"/><path d="m10.75 21.5h-2c-1.1 0-2-.9-2-2v-11c0-1.1.9-2 2-2h2c-1.1 0-2 .9-2 2v11c0 1.1.9 2 2 2z" fill="#d5dbe1"/><path d="m23.12 15.75h-2c-1.31 0-2.37-1.06-2.37-2.37v-.26c0-1.31 1.06-2.37 2.37-2.37h2c-1.31 0-2.37 1.06-2.37 2.37v.26c0 1.31 1.06 2.37 2.37 2.37z" fill="#00b871"/><path d="m16.25 22h-7.553c-1.487 0-2.697-1.204-2.697-2.684v-10.633c0-1.479 1.21-2.683 2.697-2.683h14.605c1.488 0 2.698 1.204 2.698 2.683v1.684h-1.5v-1.684c0-.652-.537-1.183-1.197-1.183h-14.606c-.66 0-1.197.531-1.197 1.183v10.633c0 .652.537 1.184 1.197 1.184h7.553z"/><path d="m26.482 16.5h-5.427c-1.685 0-3.055-1.37-3.055-3.055v-.391c0-1.684 1.37-3.054 3.055-3.054h5.427c.837 0 1.518.681 1.518 1.518v3.464c0 .837-.681 1.518-1.518 1.518zm-5.427-5c-.857 0-1.555.697-1.555 1.555v.391c0 .857.697 1.555 1.555 1.555h5.427c.01 0 .018-.008.018-.018v-3.464z"/><circle cx="21.5" cy="13.25" r="1"/><path d="m25.284 29.998c-.399 0-.798-.149-1.103-.449l-4.708-4.611c-.302-.297-.474-.708-.473-1.131l.009-3.638c.001-.64.522-1.16 1.162-1.16l3.636-.009c.41.011.833.171 1.13.474l4.613 4.707c.602.614.597 1.609-.012 2.218l-3.139 3.14c-.306.306-.711.459-1.115.459zm-4.776-9.488-.008 3.301 4.731 4.667c.03.029.079.028.107 0l3.139-3.14c.029-.029.03-.077.001-.106l-4.613-4.708z"/><circle cx="22.217" cy="22.217" r=".652"/></svg>