<?xml version="1.0" encoding="iso-8859-1"?>
<!-- Generator: Adobe Illustrator 19.0.0, SVG Export Plug-In . SVG Version: 6.00 Build 0)  -->
<svg version="1.1" id="Layer_1" xmlns="http://www.w3.org/2000/svg" xmlns:xlink="http://www.w3.org/1999/xlink" x="0px" y="0px"
	 viewBox="0 0 512 512" style="enable-background:new 0 0 512 512;" xml:space="preserve">
<circle style="fill:#FFD15D;" cx="256" cy="256" r="256"/>
<path style="fill:#F9B54C;" d="M504.325,318.398L294.664,108.737l-80.038,11.073v130l-57.234,149.664L269.56,511.641
	C383.393,505.701,477.524,425.4,504.325,318.398z"/>
<path style="fill:#F1543F;" d="M276.294,192.214h-40.589c-14,0-25.39-11.388-25.39-25.388v-40.591c0-14,11.388-25.388,25.39-25.388
	h40.589c14,0,25.39,11.388,25.39,25.388v40.591C301.684,180.824,290.294,192.214,276.294,192.214z M235.704,119.81
	c-3.544,0-6.427,2.882-6.427,6.425v40.591c0,3.543,2.882,6.425,6.427,6.425h40.589c3.544,0,6.427-2.882,6.427-6.425v-40.591
	c0-3.543-2.882-6.425-6.427-6.425H235.704z"/>
<path style="fill:#D83E20;" d="M276.294,100.847H257.15v18.963h19.144c3.544,0,6.427,2.882,6.427,6.425v40.591
	c0,3.543-2.882,6.425-6.427,6.425H257.15v18.963h19.144c14,0,25.39-11.388,25.39-25.388v-40.591
	C301.684,112.235,290.294,100.847,276.294,100.847z"/>
<path style="fill:#C1321F;" d="M325.827,412.012H186.175c-23.447,0-41.687-20.38-39.098-43.682l23.59-212.318h170.667
	l23.592,212.318C367.513,391.632,349.272,412.012,325.827,412.012z"/>
<path style="fill:#A82116;" d="M364.923,368.328l-23.59-212.316H257.15v256h68.677C349.272,412.012,367.513,391.632,364.923,368.328
	z"/>
<g>
</g>
<g>
</g>
<g>
</g>
<g>
</g>
<g>
</g>
<g>
</g>
<g>
</g>
<g>
</g>
<g>
</g>
<g>
</g>
<g>
</g>
<g>
</g>
<g>
</g>
<g>
</g>
<g>
</g>
</svg>
