<svg fill="#000000" xmlns="http://www.w3.org/2000/svg"  viewBox="0 0 48 48" width="48px" height="48px"><path d="M 18.5 5 C 16.585045 5 15 6.5850452 15 8.5 L 15 13 L 9.5 13 C 6.4802259 13 4 15.480226 4 18.5 L 4 37.5 C 4 40.519774 6.4802259 43 9.5 43 L 38.5 43 C 41.519774 43 44 40.519774 44 37.5 L 44 18.5 C 44 15.480226 41.519774 13 38.5 13 L 33 13 L 33 8.5 C 33 6.5850452 31.414955 5 29.5 5 L 18.5 5 z M 18.5 8 L 29.5 8 C 29.795045 8 30 8.2049548 30 8.5 L 30 13 L 18 13 L 18 8.5 C 18 8.2049548 18.204955 8 18.5 8 z M 9.5 16 L 38.5 16 C 39.898226 16 41 17.101774 41 18.5 L 41 23 L 36 23 L 36 22.5 C 36 21.672 35.328 21 34.5 21 L 31.5 21 C 30.672 21 30 21.672 30 22.5 L 30 23 L 18 23 L 18 22.5 C 18 21.672 17.328 21 16.5 21 L 13.5 21 C 12.672 21 12 21.672 12 22.5 L 12 23 L 7 23 L 7 18.5 C 7 17.101774 8.1017741 16 9.5 16 z M 7 26 L 12 26 L 12 26.5 C 12 27.328 12.672 28 13.5 28 L 16.5 28 C 17.328 28 18 27.328 18 26.5 L 18 26 L 30 26 L 30 26.5 C 30 27.328 30.672 28 31.5 28 L 34.5 28 C 35.328 28 36 27.328 36 26.5 L 36 26 L 41 26 L 41 37.5 C 41 38.898226 39.898226 40 38.5 40 L 9.5 40 C 8.1017741 40 7 38.898226 7 37.5 L 7 26 z"/></svg>